<?xml version="1.0" encoding="UTF-8" standalone="no"?>
<!DOCTYPE svg PUBLIC "-//W3C//DTD SVG 1.1//EN"
 "http://www.w3.org/Graphics/SVG/1.1/DTD/svg11.dtd">
<!-- Generated by graphviz version 2.38.0 (20140413.2041)
 -->
<!-- Title: controllers_diagram Pages: 1 -->
<svg width="645pt" height="519pt"
 viewBox="0.00 0.00 645.00 519.00" xmlns="http://www.w3.org/2000/svg" xmlns:xlink="http://www.w3.org/1999/xlink">
<g id="graph0" class="graph" transform="scale(1 1) rotate(0) translate(259.5 291.5)">
<title>controllers_diagram</title>
<polygon fill="none" stroke="none" points="-259.5,227.5 -259.5,-291.5 385.5,-291.5 385.5,227.5 -259.5,227.5"/>
<!-- _diagram_info -->
<g id="node1" class="node"><title>_diagram_info</title>
<text text-anchor="start" x="-152" y="-223.6" font-family="Times,serif" font-size="13.00">Controllers diagram</text>
<text text-anchor="start" x="-152" y="-209.6" font-family="Times,serif" font-size="13.00">Date: Sep 11 2017 &#45; 13:19</text>
<text text-anchor="start" x="-152" y="-195.6" font-family="Times,serif" font-size="13.00">Migration version: 20170911142026</text>
<text text-anchor="start" x="-152" y="-181.6" font-family="Times,serif" font-size="13.00">Generated by RailRoady 1.5.3</text>
<text text-anchor="start" x="-152" y="-167.6" font-family="Times,serif" font-size="13.00">http://railroady.prestonlee.com</text>
</g>
<!-- ApplicationController -->
<g id="node2" class="node"><title>ApplicationController</title>
<path fill="none" stroke="black" d="M-228,223C-228,223 -116,223 -116,223 -110,223 -104,217 -104,211 -104,211 -104,141 -104,141 -104,135 -110,129 -116,129 -116,129 -228,129 -228,129 -234,129 -240,135 -240,141 -240,141 -240,211 -240,211 -240,217 -234,223 -228,223"/>
<text text-anchor="middle" x="-172" y="144.2" font-family="Times,serif" font-size="14.00">ApplicationController</text>
<polyline fill="none" stroke="black" points="-240,152 -104,152 "/>
<polyline fill="none" stroke="black" points="-240,176 -104,176 "/>
<polyline fill="none" stroke="black" points="-240,200 -104,200 "/>
<text text-anchor="start" x="-232" y="215.2" font-family="Times,serif" font-size="14.00">_layout</text>
</g>
<!-- Users::OmniauthCallbacksController -->
<g id="node3" class="node"><title>Users::OmniauthCallbacksController</title>
<path fill="none" stroke="black" d="M92,79C92,79 286,79 286,79 292,79 298,73 298,67 298,67 298,-3 298,-3 298,-9 292,-15 286,-15 286,-15 92,-15 92,-15 86,-15 80,-9 80,-3 80,-3 80,67 80,67 80,73 86,79 92,79"/>
<text text-anchor="middle" x="189" y="0.2" font-family="Times,serif" font-size="14.00">Users::OmniauthCallbacksController</text>
<polyline fill="none" stroke="black" points="80,8 298,8 "/>
<polyline fill="none" stroke="black" points="80,32 298,32 "/>
<polyline fill="none" stroke="black" points="80,56 298,56 "/>
<text text-anchor="start" x="88" y="71.2" font-family="Times,serif" font-size="14.00">_layout</text>
</g>
<!-- Users::SessionsController -->
<g id="node4" class="node"><title>Users::SessionsController</title>
<path fill="none" stroke="black" d="M-243.5,-33C-243.5,-33 -110.5,-33 -110.5,-33 -104.5,-33 -98.5,-39 -98.5,-45 -98.5,-45 -98.5,-115 -98.5,-115 -98.5,-121 -104.5,-127 -110.5,-127 -110.5,-127 -243.5,-127 -243.5,-127 -249.5,-127 -255.5,-121 -255.5,-115 -255.5,-115 -255.5,-45 -255.5,-45 -255.5,-39 -249.5,-33 -243.5,-33"/>
<text text-anchor="middle" x="-177" y="-111.8" font-family="Times,serif" font-size="14.00">Users::SessionsController</text>
<polyline fill="none" stroke="black" points="-255.5,-104 -98.5,-104 "/>
<polyline fill="none" stroke="black" points="-255.5,-80 -98.5,-80 "/>
<polyline fill="none" stroke="black" points="-255.5,-56 -98.5,-56 "/>
<text text-anchor="start" x="-247.5" y="-40.8" font-family="Times,serif" font-size="14.00">_layout</text>
</g>
<!-- Users::RegistrationsController -->
<g id="node5" class="node"><title>Users::RegistrationsController</title>
<path fill="none" stroke="black" d="M92,-49C92,-49 274,-49 274,-49 280,-49 286,-55 286,-61 286,-61 286,-145 286,-145 286,-151 280,-157 274,-157 274,-157 92,-157 92,-157 86,-157 80,-151 80,-145 80,-145 80,-61 80,-61 80,-55 86,-49 92,-49"/>
<text text-anchor="middle" x="183" y="-141.8" font-family="Times,serif" font-size="14.00">Users::RegistrationsController</text>
<polyline fill="none" stroke="black" points="80,-134 286,-134 "/>
<polyline fill="none" stroke="black" points="80,-110 286,-110 "/>
<text text-anchor="start" x="88" y="-94.8" font-family="Times,serif" font-size="14.00">configure_account_update_params</text>
<text text-anchor="start" x="88" y="-79.8" font-family="Times,serif" font-size="14.00">configure_sign_up_params</text>
<polyline fill="none" stroke="black" points="80,-72 286,-72 "/>
<text text-anchor="start" x="88" y="-56.8" font-family="Times,serif" font-size="14.00">_layout</text>
</g>
<!-- Users::PasswordsController -->
<g id="node6" class="node"><title>Users::PasswordsController</title>
<path fill="none" stroke="black" d="M91.5,207C91.5,207 234.5,207 234.5,207 240.5,207 246.5,201 246.5,195 246.5,195 246.5,125 246.5,125 246.5,119 240.5,113 234.5,113 234.5,113 91.5,113 91.5,113 85.5,113 79.5,119 79.5,125 79.5,125 79.5,195 79.5,195 79.5,201 85.5,207 91.5,207"/>
<text text-anchor="middle" x="163" y="128.2" font-family="Times,serif" font-size="14.00">Users::PasswordsController</text>
<polyline fill="none" stroke="black" points="79.5,136 246.5,136 "/>
<polyline fill="none" stroke="black" points="79.5,160 246.5,160 "/>
<polyline fill="none" stroke="black" points="79.5,184 246.5,184 "/>
<text text-anchor="start" x="87.5" y="199.2" font-family="Times,serif" font-size="14.00">_layout</text>
</g>
<!-- Users::ConfirmationsController -->
<g id="node7" class="node"><title>Users::ConfirmationsController</title>
<path fill="none" stroke="black" d="M204.5,-193C204.5,-193 369.5,-193 369.5,-193 375.5,-193 381.5,-199 381.5,-205 381.5,-205 381.5,-275 381.5,-275 381.5,-281 375.5,-287 369.5,-287 369.5,-287 204.5,-287 204.5,-287 198.5,-287 192.5,-281 192.5,-275 192.5,-275 192.5,-205 192.5,-205 192.5,-199 198.5,-193 204.5,-193"/>
<text text-anchor="middle" x="287" y="-271.8" font-family="Times,serif" font-size="14.00">Users::ConfirmationsController</text>
<polyline fill="none" stroke="black" points="192.5,-264 381.5,-264 "/>
<polyline fill="none" stroke="black" points="192.5,-240 381.5,-240 "/>
<polyline fill="none" stroke="black" points="192.5,-216 381.5,-216 "/>
<text text-anchor="start" x="200.5" y="-200.8" font-family="Times,serif" font-size="14.00">_layout</text>
</g>
<!-- Users::UnlocksController -->
<g id="node8" class="node"><title>Users::UnlocksController</title>
<path fill="none" stroke="black" d="M-243.5,95C-243.5,95 -112.5,95 -112.5,95 -106.5,95 -100.5,89 -100.5,83 -100.5,83 -100.5,13 -100.5,13 -100.5,7 -106.5,1 -112.5,1 -112.5,1 -243.5,1 -243.5,1 -249.5,1 -255.5,7 -255.5,13 -255.5,13 -255.5,83 -255.5,83 -255.5,89 -249.5,95 -243.5,95"/>
<text text-anchor="middle" x="-178" y="16.2" font-family="Times,serif" font-size="14.00">Users::UnlocksController</text>
<polyline fill="none" stroke="black" points="-255.5,24 -100.5,24 "/>
<polyline fill="none" stroke="black" points="-255.5,48 -100.5,48 "/>
<polyline fill="none" stroke="black" points="-255.5,72 -100.5,72 "/>
<text text-anchor="start" x="-247.5" y="87.2" font-family="Times,serif" font-size="14.00">_layout</text>
</g>
<!-- SongsController -->
<g id="node9" class="node"><title>SongsController</title>
<path fill="none" stroke="black" d="M-51.5,127C-51.5,127 29.5,127 29.5,127 35.5,127 41.5,121 41.5,115 41.5,115 41.5,-89 41.5,-89 41.5,-95 35.5,-101 29.5,-101 29.5,-101 -51.5,-101 -51.5,-101 -57.5,-101 -63.5,-95 -63.5,-89 -63.5,-89 -63.5,115 -63.5,115 -63.5,121 -57.5,127 -51.5,127"/>
<text text-anchor="middle" x="-11" y="-85.8" font-family="Times,serif" font-size="14.00">SongsController</text>
<polyline fill="none" stroke="black" points="-63.5,-78 41.5,-78 "/>
<text text-anchor="start" x="-55.5" y="-62.8" font-family="Times,serif" font-size="14.00">add_to_playlist</text>
<text text-anchor="start" x="-55.5" y="-47.8" font-family="Times,serif" font-size="14.00">create</text>
<text text-anchor="start" x="-55.5" y="-32.8" font-family="Times,serif" font-size="14.00">destroy</text>
<text text-anchor="start" x="-55.5" y="-17.8" font-family="Times,serif" font-size="14.00">edit</text>
<text text-anchor="start" x="-55.5" y="-2.8" font-family="Times,serif" font-size="14.00">index</text>
<text text-anchor="start" x="-55.5" y="12.2" font-family="Times,serif" font-size="14.00">new</text>
<text text-anchor="start" x="-55.5" y="27.2" font-family="Times,serif" font-size="14.00">show</text>
<text text-anchor="start" x="-55.5" y="42.2" font-family="Times,serif" font-size="14.00">update</text>
<polyline fill="none" stroke="black" points="-63.5,50 41.5,50 "/>
<polyline fill="none" stroke="black" points="-63.5,74 41.5,74 "/>
<text text-anchor="start" x="-55.5" y="89.2" font-family="Times,serif" font-size="14.00">_layout</text>
<text text-anchor="start" x="-55.5" y="104.2" font-family="Times,serif" font-size="14.00">set_song</text>
<text text-anchor="start" x="-55.5" y="119.2" font-family="Times,serif" font-size="14.00">song_params</text>
</g>
</g>
</svg>
