<?xml version="1.0" encoding="UTF-8" standalone="no"?>
<!DOCTYPE svg PUBLIC "-//W3C//DTD SVG 1.1//EN"
 "http://www.w3.org/Graphics/SVG/1.1/DTD/svg11.dtd">
<!-- Generated by graphviz version 2.38.0 (20140413.2041)
 -->
<!-- Title: models_diagram Pages: 1 -->
<svg width="550pt" height="230pt"
 viewBox="0.00 0.00 550.34 230.00" xmlns="http://www.w3.org/2000/svg" xmlns:xlink="http://www.w3.org/1999/xlink">
<g id="graph0" class="graph" transform="scale(1 1) rotate(0) translate(4 226)">
<title>models_diagram</title>
<polygon fill="none" stroke="none" points="-4,4 -4,-226 546.343,-226 546.343,4 -4,4"/>
<!-- _diagram_info -->
<g id="node1" class="node"><title>_diagram_info</title>
<text text-anchor="start" x="8" y="-207.6" font-family="Times,serif" font-size="13.00">Models diagram</text>
<text text-anchor="start" x="8" y="-193.6" font-family="Times,serif" font-size="13.00">Date: Sep 11 2017 &#45; 13:19</text>
<text text-anchor="start" x="8" y="-179.6" font-family="Times,serif" font-size="13.00">Migration version: 20170911142026</text>
<text text-anchor="start" x="8" y="-165.6" font-family="Times,serif" font-size="13.00">Generated by RailRoady 1.5.3</text>
<text text-anchor="start" x="8" y="-151.6" font-family="Times,serif" font-size="13.00">http://railroady.prestonlee.com</text>
</g>
<!-- UserSong -->
<g id="node2" class="node"><title>UserSong</title>
<ellipse fill="none" stroke="black" cx="287" cy="-18" rx="45.4919" ry="18"/>
<text text-anchor="middle" x="287" y="-14.3" font-family="Times,serif" font-size="14.00">UserSong</text>
</g>
<!-- User -->
<g id="node3" class="node"><title>User</title>
<ellipse fill="none" stroke="black" cx="259" cy="-183" rx="27.0966" ry="18"/>
<text text-anchor="middle" x="259" y="-179.3" font-family="Times,serif" font-size="14.00">User</text>
</g>
<!-- User&#45;&gt;UserSong -->
<g id="edge1" class="edge"><title>User&#45;&gt;UserSong</title>
<path fill="none" stroke="#d544e1" d="M263.304,-156.945C268.433,-127.085 276.975,-77.3598 282.281,-46.4728"/>
<ellipse fill="none" stroke="#d544e1" cx="262.621" cy="-160.922" rx="4.00001" ry="4.00001"/>
<polygon fill="#d544e1" stroke="#d544e1" points="282.319,-46.2524 288.447,-37.1587 283.165,-41.3246 284.012,-36.3968 284.012,-36.3968 284.012,-36.3968 283.165,-41.3246 279.577,-35.6349 282.319,-46.2524 282.319,-46.2524"/>
</g>
<!-- Song -->
<g id="node4" class="node"><title>Song</title>
<ellipse fill="none" stroke="black" cx="316" cy="-90" rx="28.6953" ry="18"/>
<text text-anchor="middle" x="316" y="-86.3" font-family="Times,serif" font-size="14.00">Song</text>
</g>
<!-- User&#45;&gt;Song -->
<g id="edge2" class="edge"><title>User&#45;&gt;Song</title>
<path fill="none" stroke="#cb9ff0" d="M274.467,-157.307C282.54,-144.419 292.391,-128.692 300.472,-115.79"/>
<polygon fill="#cb9ff0" stroke="#cb9ff0" points="274.237,-157.674 265.115,-163.76 271.583,-161.912 268.929,-166.149 268.929,-166.149 268.929,-166.149 271.583,-161.912 272.742,-168.538 274.237,-157.674 274.237,-157.674"/>
<polygon fill="#cb9ff0" stroke="#cb9ff0" points="300.685,-115.449 309.808,-109.363 303.34,-111.212 305.994,-106.975 305.994,-106.975 305.994,-106.975 303.34,-111.212 302.18,-104.586 300.685,-115.449 300.685,-115.449"/>
</g>
<!-- Song&#45;&gt;UserSong -->
<g id="edge3" class="edge"><title>Song&#45;&gt;UserSong</title>
<path fill="none" stroke="#b048e3" d="M305.965,-64.7779C303.383,-58.544 300.59,-51.8046 297.963,-45.4634"/>
<ellipse fill="none" stroke="#b048e3" cx="307.596" cy="-68.7155" rx="4.00001" ry="4.00001"/>
<polygon fill="#b048e3" stroke="#b048e3" points="297.852,-45.1948 298.182,-34.2339 295.938,-40.5755 294.025,-35.9562 294.025,-35.9562 294.025,-35.9562 295.938,-40.5755 289.867,-37.6786 297.852,-45.1948 297.852,-45.1948"/>
</g>
<!-- Genre -->
<g id="node5" class="node"><title>Genre</title>
<ellipse fill="none" stroke="black" cx="337" cy="-183" rx="32.4942" ry="18"/>
<text text-anchor="middle" x="337" y="-179.3" font-family="Times,serif" font-size="14.00">Genre</text>
</g>
<!-- Genre&#45;&gt;Song -->
<g id="edge4" class="edge"><title>Genre&#45;&gt;Song</title>
<path fill="none" stroke="#6b7170" d="M331.168,-156.729C328.398,-144.725 325.084,-130.362 322.261,-118.129"/>
<ellipse fill="none" stroke="#6b7170" cx="332.151" cy="-160.986" rx="4.00001" ry="4.00001"/>
<polygon fill="#6b7170" stroke="#6b7170" points="322.181,-117.784 324.317,-107.028 321.057,-112.912 319.932,-108.04 319.932,-108.04 319.932,-108.04 321.057,-112.912 315.547,-109.052 322.181,-117.784 322.181,-117.784"/>
</g>
<!-- ApplicationRecord -->
<g id="node6" class="node"><title>ApplicationRecord</title>
<ellipse fill="none" stroke="black" cx="465" cy="-183" rx="77.1866" ry="18"/>
<text text-anchor="middle" x="465" y="-179.3" font-family="Times,serif" font-size="14.00">ApplicationRecord</text>
</g>
</g>
</svg>
