<?xml version="1.0" encoding="UTF-8" standalone="no"?>
<!DOCTYPE svg PUBLIC "-//W3C//DTD SVG 1.1//EN"
 "http://www.w3.org/Graphics/SVG/1.1/DTD/svg11.dtd">
<!-- Generated by graphviz version 2.38.0 (20140413.2041)
 -->
<!-- Title: models_diagram Pages: 1 -->
<svg width="988pt" height="566pt"
 viewBox="0.00 0.00 988.34 566.00" xmlns="http://www.w3.org/2000/svg" xmlns:xlink="http://www.w3.org/1999/xlink">
<g id="graph0" class="graph" transform="scale(1 1) rotate(0) translate(4 562)">
<title>models_diagram</title>
<polygon fill="none" stroke="none" points="-4,4 -4,-562 984.343,-562 984.343,4 -4,4"/>
<!-- _diagram_info -->
<g id="node1" class="node"><title>_diagram_info</title>
<text text-anchor="start" x="8" y="-461.6" font-family="Times,serif" font-size="13.00">Models diagram</text>
<text text-anchor="start" x="8" y="-447.6" font-family="Times,serif" font-size="13.00">Date: Sep 11 2017 &#45; 13:19</text>
<text text-anchor="start" x="8" y="-433.6" font-family="Times,serif" font-size="13.00">Migration version: 20170911142026</text>
<text text-anchor="start" x="8" y="-419.6" font-family="Times,serif" font-size="13.00">Generated by RailRoady 1.5.3</text>
<text text-anchor="start" x="8" y="-405.6" font-family="Times,serif" font-size="13.00">http://railroady.prestonlee.com</text>
</g>
<!-- UserSong -->
<g id="node2" class="node"><title>UserSong</title>
<path fill="none" stroke="black" d="M354,-0.5C354,-0.5 574,-0.5 574,-0.5 580,-0.5 586,-6.5 586,-12.5 586,-12.5 586,-109.5 586,-109.5 586,-115.5 580,-121.5 574,-121.5 574,-121.5 354,-121.5 354,-121.5 348,-121.5 342,-115.5 342,-109.5 342,-109.5 342,-12.5 342,-12.5 342,-6.5 348,-0.5 354,-0.5"/>
<text text-anchor="middle" x="464" y="-106.3" font-family="Times,serif" font-size="14.00">UserSong</text>
<polyline fill="none" stroke="black" points="342,-98.5 586,-98.5 "/>
<text text-anchor="start" x="350" y="-83.3" font-family="Times,serif" font-size="14.00">id :bigint</text>
<text text-anchor="start" x="350" y="-68.3" font-family="Times,serif" font-size="14.00">position :integer</text>
<text text-anchor="start" x="350" y="-53.3" font-family="Times,serif" font-size="14.00">song_id :bigint</text>
<text text-anchor="start" x="350" y="-38.3" font-family="Times,serif" font-size="14.00">user_id :bigint</text>
<text text-anchor="start" x="350" y="-23.3" font-family="Times,serif" font-size="14.00">created_at :timestamp without time zone</text>
<text text-anchor="start" x="350" y="-8.3" font-family="Times,serif" font-size="14.00">updated_at :timestamp without time zone</text>
</g>
<!-- User -->
<g id="node3" class="node"><title>User</title>
<path fill="none" stroke="black" d="M244.5,-316.5C244.5,-316.5 533.5,-316.5 533.5,-316.5 539.5,-316.5 545.5,-322.5 545.5,-328.5 545.5,-328.5 545.5,-545.5 545.5,-545.5 545.5,-551.5 539.5,-557.5 533.5,-557.5 533.5,-557.5 244.5,-557.5 244.5,-557.5 238.5,-557.5 232.5,-551.5 232.5,-545.5 232.5,-545.5 232.5,-328.5 232.5,-328.5 232.5,-322.5 238.5,-316.5 244.5,-316.5"/>
<text text-anchor="middle" x="389" y="-542.3" font-family="Times,serif" font-size="14.00">User</text>
<polyline fill="none" stroke="black" points="232.5,-534.5 545.5,-534.5 "/>
<text text-anchor="start" x="240.5" y="-519.3" font-family="Times,serif" font-size="14.00">id :bigint</text>
<text text-anchor="start" x="240.5" y="-504.3" font-family="Times,serif" font-size="14.00">email :character varying</text>
<text text-anchor="start" x="240.5" y="-489.3" font-family="Times,serif" font-size="14.00">encrypted_password :character varying</text>
<text text-anchor="start" x="240.5" y="-474.3" font-family="Times,serif" font-size="14.00">reset_password_token :character varying</text>
<text text-anchor="start" x="240.5" y="-459.3" font-family="Times,serif" font-size="14.00">reset_password_sent_at :timestamp without time zone</text>
<text text-anchor="start" x="240.5" y="-444.3" font-family="Times,serif" font-size="14.00">remember_created_at :timestamp without time zone</text>
<text text-anchor="start" x="240.5" y="-429.3" font-family="Times,serif" font-size="14.00">sign_in_count :integer</text>
<text text-anchor="start" x="240.5" y="-414.3" font-family="Times,serif" font-size="14.00">current_sign_in_at :timestamp without time zone</text>
<text text-anchor="start" x="240.5" y="-399.3" font-family="Times,serif" font-size="14.00">last_sign_in_at :timestamp without time zone</text>
<text text-anchor="start" x="240.5" y="-384.3" font-family="Times,serif" font-size="14.00">current_sign_in_ip :inet</text>
<text text-anchor="start" x="240.5" y="-369.3" font-family="Times,serif" font-size="14.00">last_sign_in_ip :inet</text>
<text text-anchor="start" x="240.5" y="-354.3" font-family="Times,serif" font-size="14.00">name :character varying</text>
<text text-anchor="start" x="240.5" y="-339.3" font-family="Times,serif" font-size="14.00">created_at :timestamp without time zone</text>
<text text-anchor="start" x="240.5" y="-324.3" font-family="Times,serif" font-size="14.00">updated_at :timestamp without time zone</text>
</g>
<!-- User&#45;&gt;UserSong -->
<g id="edge1" class="edge"><title>User&#45;&gt;UserSong</title>
<path fill="none" stroke="#0e1b46" d="M385.548,-308.218C387.396,-260.225 393.324,-205.757 408,-158 410.819,-148.829 414.655,-139.598 419.008,-130.677"/>
<ellipse fill="none" stroke="#0e1b46" cx="385.403" cy="-312.482" rx="4" ry="4"/>
<polygon fill="#0e1b46" stroke="#0e1b46" points="419.146,-130.407 427.714,-123.562 421.428,-125.958 423.709,-121.509 423.709,-121.509 423.709,-121.509 421.428,-125.958 419.705,-119.455 419.146,-130.407 419.146,-130.407"/>
</g>
<!-- Song -->
<g id="node4" class="node"><title>Song</title>
<path fill="none" stroke="black" d="M429,-158.5C429,-158.5 649,-158.5 649,-158.5 655,-158.5 661,-164.5 661,-170.5 661,-170.5 661,-267.5 661,-267.5 661,-273.5 655,-279.5 649,-279.5 649,-279.5 429,-279.5 429,-279.5 423,-279.5 417,-273.5 417,-267.5 417,-267.5 417,-170.5 417,-170.5 417,-164.5 423,-158.5 429,-158.5"/>
<text text-anchor="middle" x="539" y="-264.3" font-family="Times,serif" font-size="14.00">Song</text>
<polyline fill="none" stroke="black" points="417,-256.5 661,-256.5 "/>
<text text-anchor="start" x="425" y="-241.3" font-family="Times,serif" font-size="14.00">id :bigint</text>
<text text-anchor="start" x="425" y="-226.3" font-family="Times,serif" font-size="14.00">name :character varying</text>
<text text-anchor="start" x="425" y="-211.3" font-family="Times,serif" font-size="14.00">genre_id :bigint</text>
<text text-anchor="start" x="425" y="-196.3" font-family="Times,serif" font-size="14.00">duration :character varying</text>
<text text-anchor="start" x="425" y="-181.3" font-family="Times,serif" font-size="14.00">created_at :timestamp without time zone</text>
<text text-anchor="start" x="425" y="-166.3" font-family="Times,serif" font-size="14.00">updated_at :timestamp without time zone</text>
</g>
<!-- User&#45;&gt;Song -->
<g id="edge2" class="edge"><title>User&#45;&gt;Song</title>
<path fill="none" stroke="#7736b2" d="M477.856,-308.048C482.527,-301.32 487.125,-294.7 491.572,-288.296"/>
<polygon fill="#7736b2" stroke="#7736b2" points="477.82,-308.1 468.42,-313.747 474.968,-312.206 472.116,-316.313 472.116,-316.313 472.116,-316.313 474.968,-312.206 475.812,-318.88 477.82,-308.1 477.82,-308.1"/>
<polygon fill="#7736b2" stroke="#7736b2" points="491.832,-287.921 501.232,-282.275 494.684,-283.815 497.536,-279.708 497.536,-279.708 497.536,-279.708 494.684,-283.815 493.84,-277.141 491.832,-287.921 491.832,-287.921"/>
</g>
<!-- Song&#45;&gt;UserSong -->
<g id="edge3" class="edge"><title>Song&#45;&gt;UserSong</title>
<path fill="none" stroke="#782452" d="M506.688,-150.79C503.491,-144.141 500.243,-137.384 497.038,-130.72"/>
<ellipse fill="none" stroke="#782452" cx="508.484" cy="-154.527" rx="4.00002" ry="4.00002"/>
<polygon fill="#782452" stroke="#782452" points="497.038,-130.72 496.761,-119.757 494.872,-126.214 492.705,-121.707 492.705,-121.707 492.705,-121.707 494.872,-126.214 488.65,-123.657 497.038,-130.72 497.038,-130.72"/>
</g>
<!-- Genre -->
<g id="node5" class="node"><title>Genre</title>
<path fill="none" stroke="black" d="M576,-391.5C576,-391.5 796,-391.5 796,-391.5 802,-391.5 808,-397.5 808,-403.5 808,-403.5 808,-470.5 808,-470.5 808,-476.5 802,-482.5 796,-482.5 796,-482.5 576,-482.5 576,-482.5 570,-482.5 564,-476.5 564,-470.5 564,-470.5 564,-403.5 564,-403.5 564,-397.5 570,-391.5 576,-391.5"/>
<text text-anchor="middle" x="686" y="-467.3" font-family="Times,serif" font-size="14.00">Genre</text>
<polyline fill="none" stroke="black" points="564,-459.5 808,-459.5 "/>
<text text-anchor="start" x="572" y="-444.3" font-family="Times,serif" font-size="14.00">id :bigint</text>
<text text-anchor="start" x="572" y="-429.3" font-family="Times,serif" font-size="14.00">name :character varying</text>
<text text-anchor="start" x="572" y="-414.3" font-family="Times,serif" font-size="14.00">created_at :timestamp without time zone</text>
<text text-anchor="start" x="572" y="-399.3" font-family="Times,serif" font-size="14.00">updated_at :timestamp without time zone</text>
</g>
<!-- Genre&#45;&gt;Song -->
<g id="edge4" class="edge"><title>Genre&#45;&gt;Song</title>
<path fill="none" stroke="#de6b58" d="M650.799,-384.276C631.26,-355.566 606.71,-319.492 585.596,-288.467"/>
<ellipse fill="none" stroke="#de6b58" cx="653.291" cy="-387.938" rx="4.00002" ry="4.00002"/>
<polygon fill="#de6b58" stroke="#de6b58" points="585.365,-288.128 583.459,-277.329 582.552,-283.995 579.739,-279.861 579.739,-279.861 579.739,-279.861 582.552,-283.995 576.019,-282.393 585.365,-288.128 585.365,-288.128"/>
</g>
<!-- ApplicationRecord -->
<g id="node6" class="node"><title>ApplicationRecord</title>
<ellipse fill="none" stroke="black" cx="903" cy="-437" rx="77.1866" ry="18"/>
<text text-anchor="middle" x="903" y="-433.3" font-family="Times,serif" font-size="14.00">ApplicationRecord</text>
</g>
</g>
</svg>
